# xmcd CD database file
#
# Track frame offsets:
#	150
#	22116
#	47776
#	85660
#	118440
#	144408
#	172247
#	192804
#	211723
#	244069
#	268350
#
# Disc length: 3887 seconds
#
# Revision: 0
# Processed by: cddbd v1.5.1PL0 Copyright (c) Steve Scherf et al.
# Submitted via: CDex 1.51
#
DISCID=a40f2d0b
DTITLE=Etta Jones - ALways In Our Hearts
DYEAR=2004
DGENRE=Jazz
TTITLE0=Did I Remember
TTITLE1=It's Magic
TTITLE2=All Of Me
TTITLE3=God Bless The Child
TTITLE4=Mr. BoJangles
TTITLE5=Second Time Around
TTITLE6=For Sentimental Reasons
TTITLE7=Let's Beat Out Some Love
TTITLE8=Fine And Mellow
TTITLE9=I should Care
TTITLE10=What A Wonderful World
EXTD=YEAR: 2004
EXTT0=
EXTT1=
EXTT2=
EXTT3=
EXTT4=
EXTT5=
EXTT6=
EXTT7=
EXTT8=
EXTT9=
EXTT10=
PLAYORDER=
